<?xml version="1.0" standalone="no"?><!DOCTYPE svg PUBLIC "-//W3C//DTD SVG 1.1//EN" "http://www.w3.org/Graphics/SVG/1.1/DTD/svg11.dtd"><svg t="1567308124662" class="icon" viewBox="0 0 1024 1024" version="1.1" xmlns="http://www.w3.org/2000/svg" p-id="1948" xmlns:xlink="http://www.w3.org/1999/xlink" width="48" height="48"><defs><style type="text/css"></style></defs><path d="M434.4 713c15.4-37-2-79.4-39.2-94.8l-59-24.4c22.8-8.6 48.6-9 72.8 1 24.4 10.2 43.2 29.2 53.4 53.4 10 24.4 10 51.2-0.2 75.4-21 50.2-78.8 74-129.2 53-23.2-9.6-40.8-27.2-50.8-48.4l57 23.6c37.2 15.6 79.8-1.8 95.2-38.8zM864 64H160C107 64 64 107 64 160v321.4l233.2 96.2c24-16.4 52.4-24.2 81.4-22.6l110.8-160.4v-2.2c0-96.4 78.6-175 175.2-175s175.2 78.6 175.2 175c0 98.4-81.8 177.4-179.2 175l-158 112.6c3.2 77-58.2 137.6-131.4 137.6-63.6 0-117-45.4-129-105.4L64 638.4V864c0 53 43 96 96 96h704c53 0 96-43 96-96V160c0-53-43-96-96-96z m-199.4 445c-64.4 0-116.8-52.2-116.8-116.6s52.4-116.6 116.8-116.6 116.8 52.4 116.8 116.6-52.4 116.6-116.8 116.6z m0.2-29.2c48.4 0 87.8-39.2 87.8-87.6 0-48.4-39.2-87.6-87.8-87.6-48.4 0-87.8 39.2-87.8 87.6 0 48.4 39.4 87.6 87.8 87.6z" fill="#000000" p-id="1949"></path></svg>